<svg width="87" height="6" viewBox="0 0 87 6" fill="none" xmlns="http://www.w3.org/2000/svg">
<path d="M0.056 5.264C0.162667 3.92 0.536 2.85333 1.176 2.064C1.816 1.25333 2.70133 0.848 3.832 0.848C4.36533 0.848 4.888 0.954666 5.4 1.168C5.912 1.38133 6.40267 1.616 6.872 1.872C7.36267 2.128 7.82133 2.36267 8.248 2.576C8.696 2.768 9.10133 2.864 9.464 2.864C9.95467 2.864 10.36 2.69333 10.68 2.352C11 1.98933 11.2027 1.49867 11.288 0.879999H13.464C13.3787 2.16 13.016 3.216 12.376 4.048C11.736 4.85867 10.84 5.264 9.688 5.264C9.15467 5.264 8.632 5.15733 8.12 4.944C7.608 4.73067 7.10667 4.496 6.616 4.24C6.14667 3.984 5.69867 3.76 5.272 3.568C4.84533 3.35467 4.45067 3.248 4.088 3.248C3.59733 3.248 3.192 3.42933 2.872 3.792C2.57333 4.13333 2.37067 4.624 2.264 5.264H0.056ZM9.18725 5.264C9.29392 3.92 9.66725 2.85333 10.3073 2.064C10.9473 1.25333 11.8326 0.848 12.9633 0.848C13.4966 0.848 14.0193 0.954666 14.5313 1.168C15.0433 1.38133 15.5339 1.616 16.0033 1.872C16.4939 2.128 16.9526 2.36267 17.3793 2.576C17.8273 2.768 18.2326 2.864 18.5953 2.864C19.0859 2.864 19.4913 2.69333 19.8113 2.352C20.1313 1.98933 20.3339 1.49867 20.4193 0.879999H22.5953C22.5099 2.16 22.1473 3.216 21.5073 4.048C20.8673 4.85867 19.9713 5.264 18.8193 5.264C18.2859 5.264 17.7633 5.15733 17.2513 4.944C16.7393 4.73067 16.2379 4.496 15.7473 4.24C15.2779 3.984 14.8299 3.76 14.4033 3.568C13.9766 3.35467 13.5819 3.248 13.2193 3.248C12.7286 3.248 12.3233 3.42933 12.0033 3.792C11.7046 4.13333 11.5019 4.624 11.3953 5.264H9.18725ZM18.3185 5.264C18.4252 3.92 18.7985 2.85333 19.4385 2.064C20.0785 1.25333 20.9638 0.848 22.0945 0.848C22.6278 0.848 23.1505 0.954666 23.6625 1.168C24.1745 1.38133 24.6652 1.616 25.1345 1.872C25.6252 2.128 26.0838 2.36267 26.5105 2.576C26.9585 2.768 27.3638 2.864 27.7265 2.864C28.2172 2.864 28.6225 2.69333 28.9425 2.352C29.2625 1.98933 29.4652 1.49867 29.5505 0.879999H31.7265C31.6412 2.16 31.2785 3.216 30.6385 4.048C29.9985 4.85867 29.1025 5.264 27.9505 5.264C27.4172 5.264 26.8945 5.15733 26.3825 4.944C25.8705 4.73067 25.3692 4.496 24.8785 4.24C24.4092 3.984 23.9612 3.76 23.5345 3.568C23.1078 3.35467 22.7132 3.248 22.3505 3.248C21.8598 3.248 21.4545 3.42933 21.1345 3.792C20.8358 4.13333 20.6332 4.624 20.5265 5.264H18.3185ZM27.4497 5.264C27.5564 3.92 27.9297 2.85333 28.5697 2.064C29.2097 1.25333 30.0951 0.848 31.2257 0.848C31.7591 0.848 32.2817 0.954666 32.7937 1.168C33.3057 1.38133 33.7964 1.616 34.2657 1.872C34.7564 2.128 35.2151 2.36267 35.6417 2.576C36.0897 2.768 36.4951 2.864 36.8577 2.864C37.3484 2.864 37.7537 2.69333 38.0737 2.352C38.3937 1.98933 38.5964 1.49867 38.6817 0.879999H40.8577C40.7724 2.16 40.4097 3.216 39.7697 4.048C39.1297 4.85867 38.2337 5.264 37.0817 5.264C36.5484 5.264 36.0257 5.15733 35.5138 4.944C35.0017 4.73067 34.5004 4.496 34.0097 4.24C33.5404 3.984 33.0924 3.76 32.6657 3.568C32.2391 3.35467 31.8444 3.248 31.4817 3.248C30.9911 3.248 30.5857 3.42933 30.2657 3.792C29.9671 4.13333 29.7644 4.624 29.6577 5.264H27.4497ZM36.581 5.264C36.6877 3.92 37.061 2.85333 37.701 2.064C38.341 1.25333 39.2263 0.848 40.357 0.848C40.8903 0.848 41.413 0.954666 41.925 1.168C42.437 1.38133 42.9277 1.616 43.397 1.872C43.8877 2.128 44.3463 2.36267 44.773 2.576C45.221 2.768 45.6263 2.864 45.989 2.864C46.4797 2.864 46.885 2.69333 47.205 2.352C47.525 1.98933 47.7277 1.49867 47.813 0.879999H49.989C49.9037 2.16 49.541 3.216 48.901 4.048C48.261 4.85867 47.365 5.264 46.213 5.264C45.6797 5.264 45.157 5.15733 44.645 4.944C44.133 4.73067 43.6317 4.496 43.141 4.24C42.6717 3.984 42.2237 3.76 41.797 3.568C41.3703 3.35467 40.9757 3.248 40.613 3.248C40.1223 3.248 39.717 3.42933 39.397 3.792C39.0983 4.13333 38.8957 4.624 38.789 5.264H36.581ZM45.7122 5.264C45.8189 3.92 46.1923 2.85333 46.8323 2.064C47.4723 1.25333 48.3576 0.848 49.4883 0.848C50.0216 0.848 50.5443 0.954666 51.0563 1.168C51.5683 1.38133 52.0589 1.616 52.5283 1.872C53.0189 2.128 53.4776 2.36267 53.9043 2.576C54.3523 2.768 54.7576 2.864 55.1203 2.864C55.6109 2.864 56.0163 2.69333 56.3363 2.352C56.6563 1.98933 56.8589 1.49867 56.9443 0.879999H59.1203C59.0349 2.16 58.6723 3.216 58.0323 4.048C57.3923 4.85867 56.4963 5.264 55.3443 5.264C54.8109 5.264 54.2883 5.15733 53.7763 4.944C53.2643 4.73067 52.7629 4.496 52.2723 4.24C51.8029 3.984 51.3549 3.76 50.9283 3.568C50.5016 3.35467 50.1069 3.248 49.7443 3.248C49.2536 3.248 48.8483 3.42933 48.5283 3.792C48.2296 4.13333 48.0269 4.624 47.9203 5.264H45.7122ZM54.8435 5.264C54.9502 3.92 55.3235 2.85333 55.9635 2.064C56.6035 1.25333 57.4888 0.848 58.6195 0.848C59.1528 0.848 59.6755 0.954666 60.1875 1.168C60.6995 1.38133 61.1902 1.616 61.6595 1.872C62.1502 2.128 62.6088 2.36267 63.0355 2.576C63.4835 2.768 63.8888 2.864 64.2515 2.864C64.7422 2.864 65.1475 2.69333 65.4675 2.352C65.7875 1.98933 65.9902 1.49867 66.0755 0.879999H68.2515C68.1662 2.16 67.8035 3.216 67.1635 4.048C66.5235 4.85867 65.6275 5.264 64.4755 5.264C63.9422 5.264 63.4195 5.15733 62.9075 4.944C62.3955 4.73067 61.8942 4.496 61.4035 4.24C60.9342 3.984 60.4862 3.76 60.0595 3.568C59.6328 3.35467 59.2382 3.248 58.8755 3.248C58.3848 3.248 57.9795 3.42933 57.6595 3.792C57.3608 4.13333 57.1582 4.624 57.0515 5.264H54.8435ZM63.9748 5.264C64.0814 3.92 64.4548 2.85333 65.0948 2.064C65.7348 1.25333 66.6201 0.848 67.7508 0.848C68.2841 0.848 68.8068 0.954666 69.3188 1.168C69.8308 1.38133 70.3214 1.616 70.7908 1.872C71.2814 2.128 71.7401 2.36267 72.1668 2.576C72.6148 2.768 73.0201 2.864 73.3828 2.864C73.8734 2.864 74.2788 2.69333 74.5988 2.352C74.9188 1.98933 75.1214 1.49867 75.2068 0.879999H77.3828C77.2974 2.16 76.9348 3.216 76.2948 4.048C75.6548 4.85867 74.7588 5.264 73.6068 5.264C73.0734 5.264 72.5508 5.15733 72.0388 4.944C71.5268 4.73067 71.0254 4.496 70.5348 4.24C70.0654 3.984 69.6174 3.76 69.1908 3.568C68.7641 3.35467 68.3694 3.248 68.0068 3.248C67.5161 3.248 67.1108 3.42933 66.7908 3.792C66.4921 4.13333 66.2894 4.624 66.1828 5.264H63.9748ZM73.106 5.264C73.2127 3.92 73.586 2.85333 74.226 2.064C74.866 1.25333 75.7513 0.848 76.882 0.848C77.4153 0.848 77.938 0.954666 78.45 1.168C78.962 1.38133 79.4527 1.616 79.922 1.872C80.4127 2.128 80.8713 2.36267 81.298 2.576C81.746 2.768 82.1513 2.864 82.514 2.864C83.0047 2.864 83.41 2.69333 83.73 2.352C84.05 1.98933 84.2527 1.49867 84.338 0.879999H86.514C86.4287 2.16 86.066 3.216 85.426 4.048C84.786 4.85867 83.89 5.264 82.738 5.264C82.2047 5.264 81.682 5.15733 81.17 4.944C80.658 4.73067 80.1567 4.496 79.666 4.24C79.1967 3.984 78.7487 3.76 78.322 3.568C77.8953 3.35467 77.5007 3.248 77.138 3.248C76.6473 3.248 76.242 3.42933 75.922 3.792C75.6233 4.13333 75.4207 4.624 75.314 5.264H73.106Z" fill="url(#paint0_linear_4_974)"/>
<defs>
<linearGradient id="paint0_linear_4_974" x1="-4.4902" y1="-9.25579" x2="95.3068" y2="-4.73319" gradientUnits="userSpaceOnUse">
<stop stop-color="#C6F1F7"/>
<stop offset="0.364583" stop-color="#F983E9"/>
<stop offset="0.739583" stop-color="#B877FF"/>
<stop offset="1" stop-color="#C2E9CD"/>
</linearGradient>
</defs>
</svg>
